<mxfile host="app.diagrams.net" agent="Mozilla/5.0 (Windows NT 10.0; Win64; x64) AppleWebKit/537.36 (KHTML, like Gecko) Chrome/135.0.0.0 Safari/537.36 Edg/135.0.0.0" version="26.1.0">
  <diagram name="1NF - Repeating Groups Eliminated" id="mSXFZxVGlsyv6bpPESSv">
    <mxGraphModel dx="794" dy="426" grid="1" gridSize="10" guides="1" tooltips="1" connect="1" arrows="1" fold="1" page="1" pageScale="1" pageWidth="850" pageHeight="1100" math="0" shadow="0">
      <root>
        <mxCell id="0" />
        <mxCell id="1" parent="0" />
        <mxCell id="JcYyMJVg_uHY1vWYL8lm-1" value="freelancers&#xa;• freelancer_id (PK)&#xa;• name" style="shape=swimlane;" vertex="1" parent="1">
          <mxGeometry x="80" y="160" width="160" height="100" as="geometry" />
        </mxCell>
        <mxCell id="JcYyMJVg_uHY1vWYL8lm-2" value="freelancer_skills&#xa;• freelancer_id (FK)&#xa;• skill_id (FK)&#xa;• (PK: freelancer_id, skill_id)" style="shape=swimlane;" vertex="1" parent="1">
          <mxGeometry x="280" y="160" width="200" height="100" as="geometry" />
        </mxCell>
        <mxCell id="JcYyMJVg_uHY1vWYL8lm-3" value="skills&#xa;• skill_id (PK)&#xa;• skill_name" style="shape=swimlane;" vertex="1" parent="1">
          <mxGeometry x="520" y="160" width="160" height="100" as="geometry" />
        </mxCell>
        <mxCell id="JcYyMJVg_uHY1vWYL8lm-4" style="endArrow=block;" edge="1" parent="1" source="JcYyMJVg_uHY1vWYL8lm-2" target="JcYyMJVg_uHY1vWYL8lm-1">
          <mxGeometry relative="1" as="geometry" />
        </mxCell>
        <mxCell id="JcYyMJVg_uHY1vWYL8lm-5" style="endArrow=block;" edge="1" parent="1" source="JcYyMJVg_uHY1vWYL8lm-2" target="JcYyMJVg_uHY1vWYL8lm-3">
          <mxGeometry relative="1" as="geometry" />
        </mxCell>
      </root>
    </mxGraphModel>
  </diagram>
</mxfile>
